<?xml version="1.0" encoding="iso-8859-1"?>
<!-- Uploaded to: SVG Repo, www.svgrepo.com, Generator: SVG Repo Mixer Tools -->
<svg fill="#000000" height="800px" width="800px" version="1.1" id="Layer_1" xmlns="http://www.w3.org/2000/svg" xmlns:xlink="http://www.w3.org/1999/xlink" 
	 viewBox="0 0 512 512" xml:space="preserve">
<g>
	<g>
		<path d="M405.374,87.873C365.954,31.207,312.906,0,256,0S146.046,31.207,106.626,87.873
			c-38.045,54.69-58.998,127.084-58.998,203.847C47.628,413.184,141.102,512,256,512s208.372-98.816,208.372-220.279
			C464.372,214.958,443.419,142.563,405.374,87.873z M256,476.279c-95.2,0-172.651-82.793-172.651-184.558
			c0-69.538,18.681-134.688,52.6-183.448C168.496,61.488,211.13,35.721,256,35.721s87.504,25.767,120.051,72.552
			c33.919,48.76,52.6,113.91,52.6,183.448C428.651,393.486,351.2,476.279,256,476.279z"/>
	</g>
</g>
<g>
	<g>
		<path d="M154.791,291.721H119.07c0,82.069,61.427,148.837,136.93,148.837v-35.721
			C200.193,404.837,154.791,354.093,154.791,291.721z"/>
	</g>
</g>
<g>
	<g>
		<path d="M256,71.442v35.721c12.045,0,36.039,5.444,61.403,41.907l29.323-20.4C312.087,78.877,275.015,71.442,256,71.442z"/>
	</g>
</g>
</svg>